<svg width="32" height="32" viewBox="0 0 32 32" fill="none" xmlns="http://www.w3.org/2000/svg">
<path fill-rule="evenodd" clip-rule="evenodd" d="M9.46775 0.494892C11.1126 0.419171 11.637 0.402344 15.8269 0.402344C20.0169 0.402344 20.5413 0.420573 22.1847 0.494892C23.8282 0.569211 24.95 0.831432 25.9315 1.21144C26.9594 1.59986 27.8919 2.20704 28.6631 2.9923C29.4484 3.76213 30.0542 4.69322 30.4412 5.72247C30.8226 6.70405 31.0834 7.82584 31.1591 9.46647C31.2348 11.1141 31.2517 11.6386 31.2517 15.8271C31.2517 20.017 31.2334 20.5414 31.1591 22.1863C31.0848 23.8269 30.8226 24.9487 30.4412 25.9303C30.0541 26.9596 29.4474 27.8923 28.6631 28.6632C27.8919 29.4485 26.9594 30.0543 25.9315 30.4413C24.95 30.8227 23.8282 31.0835 22.1875 31.1592C20.5413 31.235 20.0169 31.2518 15.8269 31.2518C11.637 31.2518 11.1126 31.2336 9.46775 31.1592C7.82712 31.0849 6.70533 30.8227 5.72375 30.4413C4.69439 30.0542 3.76176 29.4475 2.99077 28.6632C2.20605 27.893 1.59878 26.9608 1.21132 25.9317C0.83131 24.9501 0.570491 23.8283 0.49477 22.1877C0.419049 20.54 0.402222 20.0156 0.402222 15.8271C0.402222 11.6372 0.420451 11.1127 0.49477 9.46928C0.569089 7.82584 0.83131 6.70405 1.21132 5.72247C1.59935 4.69334 2.20708 3.76117 2.99217 2.99089C3.76206 2.20634 4.69376 1.59908 5.72235 1.21144C6.70392 0.831432 7.82572 0.570613 9.46635 0.494892H9.46775ZM22.0599 3.27134C20.4333 3.19702 19.9454 3.1816 15.8269 3.1816C11.7085 3.1816 11.2206 3.19702 9.59396 3.27134C8.08934 3.34005 7.27324 3.59106 6.72916 3.80279C6.00981 4.08324 5.49519 4.41558 4.95532 4.95544C4.44356 5.45331 4.04972 6.05941 3.80267 6.72929C3.59093 7.27336 3.33993 8.08947 3.27122 9.59408C3.1969 11.2207 3.18148 11.7087 3.18148 15.8271C3.18148 19.9455 3.1969 20.4335 3.27122 22.0601C3.33993 23.5647 3.59093 24.3808 3.80267 24.9249C4.04947 25.5937 4.4435 26.2009 4.95532 26.6987C5.45312 27.2105 6.06029 27.6046 6.72916 27.8513C7.27324 28.0631 8.08934 28.3141 9.59396 28.3828C11.2206 28.4571 11.7071 28.4725 15.8269 28.4725C19.9468 28.4725 20.4333 28.4571 22.0599 28.3828C23.5646 28.3141 24.3807 28.0631 24.9247 27.8513C25.6441 27.5709 26.1587 27.2386 26.6986 26.6987C27.2104 26.2009 27.6044 25.5937 27.8512 24.9249C28.063 24.3808 28.314 23.5647 28.3827 22.0601C28.457 20.4335 28.4724 19.9455 28.4724 15.8271C28.4724 11.7087 28.457 11.2207 28.3827 9.59408C28.314 8.08947 28.063 7.27336 27.8512 6.72929C27.5708 6.00993 27.2384 5.49531 26.6986 4.95544C26.2007 4.44372 25.5946 4.04989 24.9247 3.80279C24.3807 3.59106 23.5646 3.34005 22.0599 3.27134V3.27134ZM13.8568 20.5821C14.9571 21.0401 16.1822 21.1019 17.323 20.757C18.4638 20.412 19.4495 19.6817 20.1117 18.6908C20.7738 17.6999 21.0714 16.5098 20.9536 15.3238C20.8358 14.1378 20.3099 13.0295 19.4658 12.1882C18.9277 11.6504 18.277 11.2387 17.5606 10.9825C16.8442 10.7264 16.08 10.6322 15.3228 10.7069C14.5657 10.7816 13.8346 11.0232 13.182 11.4144C12.5295 11.8055 11.9718 12.3365 11.5491 12.9691C11.1264 13.6016 10.8492 14.3201 10.7375 15.0726C10.6258 15.8252 10.6823 16.5931 10.903 17.3212C11.1237 18.0493 11.5031 18.7194 12.0138 19.2832C12.5246 19.8471 13.154 20.2907 13.8568 20.5821ZM10.2208 10.2209C10.957 9.48467 11.831 8.90067 12.7929 8.50223C13.7548 8.1038 14.7858 7.89872 15.8269 7.89872C16.8681 7.89872 17.8991 8.1038 18.861 8.50223C19.8229 8.90067 20.6969 9.48467 21.4331 10.2209C22.1694 10.9571 22.7533 11.8311 23.1518 12.793C23.5502 13.7549 23.7553 14.7859 23.7553 15.8271C23.7553 16.8682 23.5502 17.8992 23.1518 18.8611C22.7533 19.823 22.1694 20.697 21.4331 21.4333C19.9463 22.9201 17.9297 23.7554 15.8269 23.7554C13.7242 23.7554 11.7076 22.9201 10.2208 21.4333C8.73391 19.9464 7.8986 17.9298 7.8986 15.8271C7.8986 13.7243 8.73391 11.7077 10.2208 10.2209V10.2209ZM25.5137 9.07945C25.6961 8.90735 25.8422 8.7004 25.9432 8.47084C26.0442 8.24128 26.0981 7.99379 26.1018 7.74301C26.1055 7.49224 26.0588 7.24328 25.9645 7.01087C25.8702 6.77847 25.7302 6.56734 25.5529 6.39C25.3755 6.21265 25.1644 6.07269 24.932 5.97841C24.6996 5.88412 24.4506 5.83742 24.1999 5.84108C23.9491 5.84473 23.7016 5.89867 23.472 5.99969C23.2425 6.10071 23.0355 6.24677 22.8634 6.42921C22.5287 6.78402 22.3455 7.2553 22.3526 7.74301C22.3597 8.23073 22.5566 8.69647 22.9015 9.04137C23.2464 9.38628 23.7122 9.58318 24.1999 9.59029C24.6876 9.5974 25.1589 9.41416 25.5137 9.07945V9.07945Z" fill="#F8F8F8"/>
</svg>
